<svg id="Layer_1" data-name="Layer 1" xmlns="http://www.w3.org/2000/svg" viewBox="0 0 500.37 33.72"><defs><style>.cls-1{fill:#fff;}.cls-2{opacity:0.5;}</style></defs><title>sharp-paper-bottom</title><path class="cls-1" d="M500,200V176.26l-1.71,2.4a6.49,6.49,0,0,0-4.81,1.39,3.14,3.14,0,0,1-1.91.21c-1.84-.43-3.62-1-5.42-1.45-.37-.1-.75-.16-1.11-.23a1.7,1.7,0,0,1-.06-.5c-.08-.6-.15-1.21-.22-1.81a8.66,8.66,0,0,0-1.94.87c-1.61,1.27-3.41.68-5.21.35-.44-.08-1-.36-1.29-.26-3.13,1.18-6.52.34-9.76.62-1.51.12-3.31-.5-4.45.76-.12.12-.91,0-1.39,0-4.78.06-9.55.06-14.33.06-2.33.06-4.66,1.5-5.19,3.1a1.56,1.56,0,0,1-.92,1c-1.56.43-3.2.7-4.81,1-.2,0-.41,0-.61.1-1,.23-2.19.85-2.85.65a16.75,16.75,0,0,1-3.38-1.9c-.87-.5-1.82-.94-2.76-1.38-.21-.09-.67-.06-.73-.18-1.08-1.82-3.42-1.48-5.56-1.48a11.55,11.55,0,0,1-6.47-1.72c-.35-.23-.4-.67-.76-.89a21.31,21.31,0,0,0-2.35-1l-.19,1.85h-2l-.57-2c-1.51.19-2.71.36-3.93.49-2.2.24-4.63-.53-6.63.71a3.22,3.22,0,0,1-1.63,0,34.69,34.69,0,0,1-4.51-.93,7.16,7.16,0,0,0-5.67,0,3.58,3.58,0,0,1-2,0,22.89,22.89,0,0,1-2.94-1.07l-.12-1.15c-1.42,0-2.9-.8-4,.53-.17.21-1.28.11-2.11.11l1.5-3-.79-.32c-.69.47-1.4,1-2.07,1.48-1.42,1-2.65,2.26-5.3,2a7.05,7.05,0,0,0-2.39.59c-2.48.79-4.29,0-4.95-2l-4.73.63-.12,1.53c-1.89.31-4.1-.63-5.61,1.14l-3.8-3.85c-.63.54-1.1.92-1.53,1.31a6.7,6.7,0,0,1-5.78,1.42,1.11,1.11,0,0,1-.61-.26c-1.16-1.88-3.69-1.23-5.74-1.38a2.81,2.81,0,0,0-1.15.36l-8.41-.7,2.49-.81c-2.16-.79-4.63-.77-5.73.41-.77.82-1.49.72-2.46.72H313.6c-1.67,0-2.42.72-2.6,2.51-1.86-.72-3.31,2-5.22.2-2.09,1-4.11,2-6.21,3a2.76,2.76,0,0,1-1.61,0c-1.19-.47-2.26-1.06-3.4-1.59a4.74,4.74,0,0,0-1.19,0l1.51,3c-3.71.59-4.51.24-5-2.24l-3.26.13,1.08,1.34-2.18.45,1.85,2a6.84,6.84,0,0,1-1.42.2c-2-.11-3.67.12-4.76,1.4a2.68,2.68,0,0,1-1.26,0c-.41-.09-.78-.46-1.11-.46-2.72.27-4.4-.83-6.14-1.94A15.39,15.39,0,0,0,270,181l.26,2.85-4.9-1.46c-.67,1.17-2,1.63-4.18,1.52s-4.3.07-6.44,0a18.27,18.27,0,0,1-2.42-.62c-1.1-.21-2.24-.31-3.84-.52l.89,2.81c-.34.78-1.77.78-3.34.78a3.25,3.25,0,0,0-2.64.65c-.32.26-1.89,0-3.54,0,1.24-.92,2.12-1.55,2.94-2.21a6.34,6.34,0,0,0,.84-.95c-.78,0-2-.14-2.28.14-2.12,1.89-4.74,2.49-8.29,2.4-1.74,0-3.56,1.15-5.3,1.83a12.9,12.9,0,0,0-1.72,1v1.28c-2.39.78-4.53,1.43-6.53,2.14-1.39.49-5.39.2-6.39-.52-.67.32-1.13,1.37-2.21.12-.39-.45-2.25-.1-2.59-1.12a5,5,0,0,0-2,.2c-1.16,1.06-2.5.54-3.82.4a11.72,11.72,0,0,1-1.66-.27l-7-.52-.17-1.51c-.49.12-.88.18-1.23.29a6.83,6.83,0,0,1-1.6.53c-2.75.13-2.75.1-3.89,1.73-1.21-1-2.37-1-4-.21l-.18.08a2.07,2.07,0,0,1-2.65-1.27c-.38-.88-.92-1.24-2.71-1l.69,3.1-2.62.11c-1-1.86-1.68-1.9-4.2-1a48.73,48.73,0,0,1-5.94,1.28l-.54-1.75a17.33,17.33,0,0,0-1.91.1,9,9,0,0,0-1.52.49c.23-.58-1.45-.9-.34-1.71.6-.44.51-1.3.83-2.25l-2.4-1.26-.14.19-2.16-2.38a5.4,5.4,0,0,1-5.33.29c-1.53-.68-2.66.64-4,1-1.62.45-3.11,1.13-4.41,1.61-2.75-2.23-5.69-.68-8.2-1.21l-.19.33,1.32,1-.13.4c-2.65-.46-5.41.78-8-.65a3.2,3.2,0,0,0-1.71-.08c-.85,1.37-2.48.47-3.78.74l-.57-1.49c-3,1.11-4.09.78-4.75-1.32-.1-.32-.63-.6-.85-.79l1-1.93-.66-.44a21.3,21.3,0,0,0-4.36,1.53,4.94,4.94,0,0,1-6.21-.15c-.21-.16-.22-.44-.32-.65l-.7.26c-.15.46-.11,1.08-.48,1.47a2,2,0,0,1-1.63.41,45.29,45.29,0,0,1-6.27-.37,38.09,38.09,0,0,1-5.78-2c.25-.27.68-.72,1.06-1.18.15-.18.34-.43.26-.59a1.12,1.12,0,0,0-.77-.31,2.42,2.42,0,0,0-1.19.14c-1.81,1.47-2.84.45-4-.56l2.3-.57c-1.3-1.69-3.86-1.79-6.45-2.59l.76-2.7h.55L82,173c-1.44,1.07-4.17,1-6,.16a13.44,13.44,0,0,0-3.39-.46,12.47,12.47,0,0,1-.12-1.38c-2.7-.57-5.69.71-8.28-.85l-.46,1.4c-1.07-.18-2.88-.66-3.07-.47a3,3,0,0,1-2.79.63,29.54,29.54,0,0,1-5-1c-1.32-.46-1.21-.61-2.1.22a4.22,4.22,0,0,0-4.92-.12c-1-.47-2-1-3-1.38a1.8,1.8,0,0,0-1-.13c-1.63,1.27-3.39.12-5.06.18a40.2,40.2,0,0,0-5.11.69c-2.21.37-3.51-1-5.39-1.2A10.77,10.77,0,0,0,24.3,169a30.33,30.33,0,0,1-3.79.54c-2.12-.08-4.36.4-6.36-.61a2.07,2.07,0,0,0-1.39,0c-3,1.4-6.47.26-9.67.61-.7.07-1.7-1.31-2.7-2.13A6.28,6.28,0,0,0,0,168.57V200H500Z" transform="translate(0 -166.28)"/><g class="cls-2"><path class="cls-1" d="M500.37,198.89V175.15l-1.71,2.4a6.5,6.5,0,0,0-4.81,1.39,3.13,3.13,0,0,1-1.91.21c-1.84-.44-3.62-1-5.42-1.45-.37-.1-.75-.16-1.11-.23a1.7,1.7,0,0,1-.06-.5c-.08-.6-.15-1.21-.22-1.81a9.57,9.57,0,0,0-1.94.86c-1.61,1.27-3.41.68-5.21.36-.44-.08-1-.37-1.29-.26-3.13,1.17-6.52.34-9.76.61-1.51.13-3.32-.49-4.46.77-.12.12-.91,0-1.39,0-4.78.06-9.55.06-14.33.06-2.33.06-4.66,1.5-5.19,3.1a1.54,1.54,0,0,1-.92,1c-1.56.42-3.2.7-4.81,1-.2,0-.41,0-.61.09-1,.24-2.19.86-2.85.65a16.77,16.77,0,0,1-3.38-1.89c-.87-.5-1.82-.94-2.76-1.39-.21-.09-.67-.06-.73-.17-1.08-1.82-3.42-1.48-5.56-1.48a11.57,11.57,0,0,1-6.47-1.72c-.35-.23-.4-.67-.76-.89a21.31,21.31,0,0,0-2.35-1l-.19,1.84h-2l-.57-2c-1.51.19-2.71.36-3.93.49-2.2.24-4.63-.54-6.63.71a3.22,3.22,0,0,1-1.63,0,35.19,35.19,0,0,1-4.52-.93,7.16,7.16,0,0,0-5.67,0,3.58,3.58,0,0,1-2,0,25.89,25.89,0,0,1-2.94-1.08l-.12-1.14c-1.42,0-2.9-.81-4,.52-.17.22-1.28.12-2.11.12l1.5-3-.79-.32c-.69.46-1.4,1-2.07,1.48-1.42,1-2.65,2.26-5.3,2a6.88,6.88,0,0,0-2.39.59c-2.48.79-4.29,0-4.95-2l-4.73.63-.12,1.53c-1.89.3-4.1-.63-5.61,1.14l-3.8-3.85c-.63.54-1.1.91-1.53,1.31a6.72,6.72,0,0,1-5.78,1.42,1.19,1.19,0,0,1-.61-.26c-1.16-1.88-3.69-1.23-5.74-1.38a2.81,2.81,0,0,0-1.15.36l-8.41-.7,2.49-.81c-2.16-.79-4.64-.77-5.74.4-.77.83-1.49.73-2.46.73h-2.92c-1.67,0-2.42.72-2.6,2.51-1.86-.72-3.31,2-5.22.2-2.09,1-4.11,2-6.21,3a2.76,2.76,0,0,1-1.61,0c-1.19-.47-2.26-1.07-3.4-1.59a4.74,4.74,0,0,0-1.19,0l1.51,3c-3.71.59-4.51.23-5-2.24l-3.26.13,1.08,1.34-2.18.45,1.85,2a7.48,7.48,0,0,1-1.42.2c-2-.11-3.67.12-4.76,1.4a2.68,2.68,0,0,1-1.26,0c-.41-.09-.78-.46-1.11-.46-2.72.27-4.4-.83-6.14-1.95a16.25,16.25,0,0,0-2.65-.91l.26,2.85-4.9-1.46c-.67,1.17-2,1.62-4.18,1.51s-4.3.07-6.44,0a15.92,15.92,0,0,1-2.42-.62c-1.1-.2-2.24-.3-3.85-.51l.89,2.81c-.34.78-1.77.78-3.34.78a3.26,3.26,0,0,0-2.64.65c-.32.26-1.89,0-3.54,0,1.24-.92,2.12-1.55,2.94-2.21a5.4,5.4,0,0,0,.84-.95c-.78,0-2-.14-2.28.13-2.12,1.9-4.74,2.5-8.29,2.41-1.74,0-3.56,1.15-5.3,1.83a13.57,13.57,0,0,0-1.72,1v1.28c-2.39.78-4.53,1.43-6.53,2.14-1.39.49-5.39.19-6.39-.53-.67.33-1.13,1.37-2.21.13-.39-.45-2.25-.11-2.59-1.12a4.85,4.85,0,0,0-2,.2c-1.16,1.06-2.5.54-3.82.4a12,12,0,0,1-1.66-.28l-7-.51-.17-1.52c-.49.13-.88.19-1.23.3a6.83,6.83,0,0,1-1.6.53c-2.75.13-2.75.1-3.89,1.73-1.21-1-2.37-1-4-.21a.75.75,0,0,1-.18.07,2.06,2.06,0,0,1-2.65-1.26c-.38-.88-.92-1.24-2.72-1l.69,3.1-2.62.1c-1-1.85-1.68-1.89-4.2-1a47.93,47.93,0,0,1-5.94,1.28l-.54-1.75a15.38,15.38,0,0,0-1.91.1,9.28,9.28,0,0,0-1.52.49c.23-.58-1.45-.9-.34-1.72.6-.43.51-1.29.83-2.24l-2.4-1.27-.14.2-2.16-2.38a5.4,5.4,0,0,1-5.33.29c-1.53-.68-2.66.64-4,1-1.62.45-3.11,1.13-4.41,1.6-2.75-2.22-5.69-.68-8.2-1.2l-.19.33,1.32.95-.13.4c-2.65-.47-5.41.78-8-.65a3.2,3.2,0,0,0-1.71-.08c-.85,1.37-2.48.47-3.78.74l-.57-1.49c-3,1.11-4.09.78-4.75-1.32-.1-.32-.63-.6-.85-.79l1-1.93-.66-.45a21.34,21.34,0,0,0-4.36,1.54,4.94,4.94,0,0,1-6.22-.16c-.21-.15-.22-.43-.32-.65l-.7.27c-.15.45-.11,1.07-.48,1.47a2,2,0,0,1-1.63.41,45.39,45.39,0,0,1-6.27-.37,38.87,38.87,0,0,1-5.78-2c.25-.27.68-.72,1.06-1.19.15-.17.34-.42.26-.59a1.14,1.14,0,0,0-.77-.3,2.31,2.31,0,0,0-1.19.14c-1.81,1.46-2.84.45-4-.57l2.3-.56c-1.3-1.69-3.86-1.79-6.45-2.59l.76-2.7H84l-1.71-1c-1.44,1.08-4.17,1-6,.17a13.32,13.32,0,0,0-3.39-.46,12.69,12.69,0,0,1-.12-1.38c-2.7-.57-5.69.71-8.28-.85l-.46,1.4c-1.07-.19-2.88-.66-3.07-.47a3,3,0,0,1-2.79.63,28.62,28.62,0,0,1-5-1c-1.32-.45-1.21-.6-2.1.23a4.22,4.22,0,0,0-4.92-.12c-1-.47-2-.95-3-1.38a1.8,1.8,0,0,0-1-.14c-1.63,1.28-3.39.13-5.06.19a40.6,40.6,0,0,0-5.12.69c-2.21.37-3.51-1-5.39-1.2a9.85,9.85,0,0,0-1.95-.27,28.33,28.33,0,0,1-3.79.53c-2.12-.07-4.36.41-6.36-.61a2.2,2.2,0,0,0-1.39,0c-3,1.4-6.47.27-9.67.61-.7.07-1.7-1.31-2.7-2.12a6,6,0,0,0-.39,1.18v31.43H500.37Z" transform="translate(0 -166.28)"/></g></svg>